<?xml version="1.0" encoding="UTF-8" standalone="no"?>
<svg
   xmlns:dc="http://purl.org/dc/elements/1.1/"
   xmlns:cc="http://creativecommons.org/ns#"
   xmlns:rdf="http://www.w3.org/1999/02/22-rdf-syntax-ns#"
   xmlns:svg="http://www.w3.org/2000/svg"
   xmlns="http://www.w3.org/2000/svg"
   viewBox="0 0 498.66666 120"
   height="120"
   width="498.66666"
   xml:space="preserve"
   id="svg2"
   version="1.1"><metadata
     id="metadata8"><rdf:RDF><cc:Work
         rdf:about=""><dc:format>image/svg+xml</dc:format><dc:type
           rdf:resource="http://purl.org/dc/dcmitype/StillImage" /></cc:Work></rdf:RDF></metadata><defs
     id="defs6" /><g
     transform="matrix(1.3333333,0,0,-1.3333333,0,120)"
     id="g10"><g
       transform="scale(0.1)"
       id="g12"><path
         id="path14"
         style="fill:#474747;fill-opacity:1;fill-rule:evenodd;stroke:none"
         d="m 634.059,334.262 c 0.39,-7.192 0.589,-14.262 0.589,-21.25 0.192,-3.602 0.313,-7.192 0.313,-10.742 l -0.902,-10.508 c -0.387,-6.992 -1.008,-13.992 -1.789,-20.942 -1.18,-6.8 -2.391,-13.59 -3.598,-20.351 -5.781,-27.348 -14.844,-52.699 -27.223,-76.02 -5.98,-11.75 -12.66,-22.929 -20.039,-33.508 -0.82,-1.41 -1.801,-2.89 -3.012,-4.492 l -3.007,-3.597 -5.661,-7.192 c -3.789,-5 -7.781,-9.762 -11.96,-14.371 C 522.621,74.4102 484.34,48.2813 442.852,32.8906 405.512,19.7305 370.391,13.4414 337.5,14.0195 c 9.18,-2.3789 18.441,-4.48825 27.809,-6.28903 1.992,0 3.992,-0.07031 5.98,-0.26953 43.32,-1.41016 89.492,7.49996 138.59,26.64066 24.101,9.957 47.582,23.0078 70.32,39.2187 22.922,16.3281 43.981,35.7817 63.16,58.3597 4.762,5.59 9.371,11.332 13.75,17.34 4.61,6.179 8.871,12.46 12.891,18.832 1.949,3.199 3.949,6.41 5.98,9.609 1.989,3.199 3.86,6.449 5.661,9.84 3.789,6.609 7.379,13.359 10.781,20.359 6.558,14.18 12.269,28.75 17.027,43.711 2.43,7.379 4.61,14.957 6.602,22.731 1.801,7.777 3.398,15.589 4.808,23.359 10.981,65.039 3.789,129.379 -21.558,193.008 -3.563,8.793 -7.582,17.383 -11.961,25.742 L 618.52,406.988 c 8.16,-23.75 13.359,-48.008 15.539,-72.726" /><path
         id="path16"
         style="fill:#474747;fill-opacity:1;fill-rule:evenodd;stroke:none"
         d="m 648.121,576.949 c -10.742,13.172 -22.34,25.473 -34.68,36.84 -6.211,5.781 -12.582,11.289 -19.179,16.441 -6.563,5.2 -13.364,10.282 -20.352,15.282 -14.18,9.566 -28.832,18.16 -43.988,25.738 -15.152,7.379 -30.742,13.672 -46.684,18.828 -32.539,10.391 -65.539,15.973 -99.058,16.762 -68.629,0.621 -131.289,-15.942 -187.969,-49.692 -6.762,-3.949 -13.441,-8.238 -20.039,-12.847 -6.371,-4.379 -12.652,-9.071 -18.871,-14.071 -12.34,-9.96 -23.821,-20.539 -34.41,-31.71 -5.352,-5.59 -10.469,-11.372 -15.231,-17.348 -2.43,-2.813 -4.808,-5.703 -7.191,-8.672 l -6.8792,-9.301 C 88.9805,557.031 84.6914,550.82 80.6992,544.648 76.7188,538.281 72.9297,531.879 69.3398,525.469 55.1602,499.379 44.6094,472.73 37.6211,445.59 c -7,-27.309 -10.7813,-53.949 -11.3711,-79.93 -0.3906,-35.699 3.6719,-68.711 12.2695,-99.058 2.7696,-6.762 5.8907,-13.321 9.2891,-19.723 -4.4102,19.332 -6.7891,40 -7.2188,61.949 -0.5898,44.293 10,89.371 31.75,135.274 2.7813,5.589 5.8594,11.058 9.2618,16.449 l 4.8086,8.398 2.3789,3.903 c 0,0.16 0.082,0.468 0.3125,0.859 l 0.5898,0.629 0.5781,0.89 1.5313,1.801 c 6.75,10.348 14.6482,20.547 23.6292,30.508 17.539,20.16 38.011,37.813 61.332,52.973 5.816,3.59 11.718,7.066 17.687,10.468 6.172,3.399 12.461,6.481 18.832,9.29 l 9.61,4.5 c 3.16,1.402 6.449,2.691 9.839,3.859 6.61,2.422 13.29,4.691 20.079,6.922 27.742,7.969 56.25,12.07 85.55,12.219 29.532,-0.149 58.59,-4.649 87.11,-13.43 28.511,-9.18 55.269,-22.07 80.23,-38.641 l 17.352,-13.429 c 2.969,-2 5.898,-4.301 8.668,-6.879 l 8.082,-7.813 8.359,-7.777 4.18,-3.86 3.601,-4.222 14.68,-16.758 c 11.758,-15.16 22.039,-31.211 30.828,-48.16 l 65.539,104.14 c -5.816,8.938 -12.066,17.649 -18.867,26.008" /><path
         id="path18"
         style="fill:#474747;fill-opacity:1;fill-rule:evenodd;stroke:none"
         d="m 652.93,74.4883 c 21.129,14.7734 40.98,32.0317 59.531,51.7617 52.109,70.43 80.508,135.199 85.309,194.219 5,59.301 -1.79,110.269 -20.348,152.929 -18.75,42.93 -37.621,75.043 -56.563,96.403 L 698.711,534.77 c 6.559,-11.961 12.379,-24.34 17.34,-37.11 12.777,-33.129 20.75,-66.922 23.949,-101.449 2.77,-34.332 0.898,-67.93 -5.66,-100.859 -1.801,-8.204 -3.719,-16.25 -5.711,-24.262 -2.18,-7.969 -4.68,-15.86 -7.457,-23.629 -5.434,-15.352 -11.723,-30.121 -18.871,-44.262 -3.59,-7.179 -7.379,-14.179 -11.36,-20.969 -2.031,-3.402 -4.101,-6.761 -6.293,-10.16 -2.187,-3.199 -4.296,-6.41 -6.289,-9.609 C 673.75,155.898 669.18,149.609 664.57,143.629 659.801,137.66 654.922,131.84 649.922,126.25 629.57,103.52 607.539,84.1797 583.789,68.1992 560.039,52.2305 535.898,39.5703 511.371,30.1992 462.891,12.8516 417.578,4.87891 375.512,6.25 c 20.347,-3.39844 41.09,-5.390625 62.218,-5.980469 42.5,1.410159 87,11.179669 133.481,29.339869 27.93,11.3711 55.16,26.332 81.719,44.8789" /><path
         id="path20"
         style="fill:#474747;fill-opacity:1;fill-rule:evenodd;stroke:none"
         d="m 734.922,658.672 c -0.434,0.199 -0.582,0.387 -0.582,0.59 -12.578,15.386 -26.059,29.84 -40.43,43.398 -14.531,13.16 -30,25.43 -46.371,36.789 -67.23,45.711 -141.059,69.461 -221.449,71.25 -80.039,0.391 -152.731,-19.25 -218.16,-58.937 -4.219,-2.231 -8.2,-4.614 -11.989,-7.192 L 184.57,736.762 C 176.988,731.41 169.691,725.82 162.73,720 148.32,708.441 135.078,696.172 122.891,683.199 116.719,676.602 110.82,669.84 105.23,662.852 102.461,659.488 99.6484,656.051 96.8789,652.66 94.3008,649.102 91.6797,645.512 89.1016,641.91 83.9102,634.73 79.0195,627.539 74.4102,620.352 69.8398,612.969 65.4688,605.512 61.25,597.93 45.0781,567.578 33.0117,536.68 25.0391,505.16 17.2695,473.629 13.0898,442.77 12.4609,412.66 12.3008,364.801 18.75,321.289 31.9102,282.191 c 0,-0.39 0.1211,-0.711 0.3203,-0.902 -6.6094,26.133 -9.961,54.262 -10.1602,84.371 -0.2305,26.57 2.8906,53.719 9.2578,81.449 6.4024,27.891 16.4805,55.43 30.2305,82.582 3.6016,6.559 7.2695,13.278 11.0625,20.039 4.0195,6.399 8.1992,12.891 12.5781,19.45 2.3789,3.199 4.6797,6.289 6.8711,9.3 2.2305,3.2 4.6094,6.36 7.1914,9.571 4.7973,6.168 9.8793,12.258 15.2693,18.238 10.778,11.801 22.348,22.973 34.731,33.512 6.168,5.398 12.539,10.469 19.136,15.277 6.801,5 13.672,9.692 20.661,14.063 28.32,17.968 59.031,31.8 92.191,41.597 33.281,9.571 67.621,14.262 102.93,14.063 72.621,-0.781 139.57,-21.75 200.82,-62.852 36.719,-25.5 67.73,-56.64 93.051,-93.359 l 54.179,85.898 2.692,4.184" /><path
         id="path22"
         style="fill:#707070;fill-opacity:1;fill-rule:evenodd;stroke:none"
         d="m 430.551,71.2109 c 3.199,2.9688 6.48,6.0586 9.879,9.2579 l 5.121,4.4921 c 1.359,1.8008 2.89,3.4805 4.449,5.0782 3.012,3.4023 6.02,6.9101 8.98,10.4729 2.782,3.629 5.59,7.379 8.399,11.398 l 4.18,5.981 2.113,3.007 1.797,2.973 c 4.961,8.199 9.371,16.641 13.16,25.43 7.973,17.769 13.562,36.64 16.762,56.558 0.589,4.801 1.168,9.692 1.8,14.692 0.188,3.789 0.27,7.461 0.27,11.051 L 400.621,61.9102 c -0.191,-0.1914 -0.269,-0.3086 -0.269,-0.3086 l -1.524,-2.6524 -0.308,0.2696 C 393.16,51.25 386.762,44.4883 379.379,38.9102 c 13.98,6.1679 27.531,14.1406 40.699,23.8984 3.402,2.8125 6.871,5.6328 10.473,8.4023" /><path
         id="path24"
         style="fill:#707070;fill-opacity:1;fill-rule:evenodd;stroke:none"
         d="m 94.1797,255.551 c 20.1603,29.328 50.9803,44.879 92.4613,46.719 41.519,1.75 84.218,-10.711 128.089,-37.43 51.29,-34.328 83.2,-74.641 95.782,-120.93 l 91.289,144.879 c -3.012,12.34 -6.879,24.41 -11.68,36.172 l -6.601,14.098 c -2.391,4.57 -4.969,9.062 -7.782,13.441 l -3.898,6.879 c -1.371,2.031 -2.891,4.101 -4.461,6.281 -2.809,4.219 -5.777,8.399 -8.981,12.578 l -10.468,11.684 -5.391,5.387 -5.391,5.082 -5.699,5.121 c -1.801,1.758 -3.871,3.468 -6.289,5.078 l -12.859,9.57 c -17.34,11.75 -35.891,21.051 -55.66,27.809 -5,1.41 -9.961,2.812 -14.961,4.179 -2.621,0.622 -5.2,1.25 -7.809,1.801 l -7.461,1.211 -7.781,1.481 c -2.379,0.429 -4.879,0.699 -7.457,0.937 -5.192,0.391 -10.391,0.781 -15.582,1.172 -20.75,0.391 -41.102,-1.801 -61.059,-6.602 -4.761,-1.367 -9.691,-2.769 -14.652,-4.179 l -7.18,-2.379 -6.879,-2.699 c -4.8,-1.993 -9.492,-3.981 -14.101,-5.981 -4.379,-2.379 -8.75,-4.801 -13.168,-7.18 l -3.281,-1.8 -3,-2.11 -6.25,-3.871 c -4.219,-2.808 -8.321,-5.699 -12.27,-8.711 -3.789,-2.968 -7.578,-6.047 -11.41,-9.258 -3.551,-3.199 -6.949,-6.48 -10.149,-9.878 -6.992,-6.762 -13.48,-14.141 -19.461,-22.153 l -2.07,-2.379 -2.109,-2.968 -3.903,-5.981 c -2.578,-3.82 -5.0777,-7.812 -7.4566,-11.992 -2.1914,-3.981 -4.4219,-8.078 -6.6016,-12.258 -1.1796,-2.031 -2.1914,-4.031 -3.0117,-5.98 l -2.6562,-6.289 c -1.8008,-4.411 -3.5117,-8.59 -5.1211,-12.582 -1.4024,-4.372 -2.6914,-8.668 -3.8594,-12.891 -4.6133,-17.149 -7.3125,-33.981 -8.0898,-50.539 -0.5821,-13.988 0.0781,-27.352 2.1093,-40.121 3.5586,-5.59 7.1485,-11.059 10.7383,-16.449 -2.5781,23.558 1.9219,44.89 13.4805,64.031" /><path
         id="path26"
         style="fill:#000000;fill-opacity:1;fill-rule:evenodd;stroke:none"
         d="M 894.449,518.012 C 880.859,600.621 849.262,672.34 799.57,733.199 749.691,794.02 688.32,839.141 615.512,868.441 542.5,897.809 464.449,906.641 381.48,895.078 255.98,872.539 157.699,813.012 86.7188,716.449 15.8594,620.078 -11.5586,508.52 4.41016,381.84 8.78906,354.34 15.3906,327.891 24.1406,302.539 14.9609,336.25 10.1992,372.969 9.76953,412.66 10,443.012 13.7891,474.102 21.1289,506.02 c 7.4219,31.949 19.1797,63.359 35.3516,94.289 3.9883,7.781 8.289,15.472 12.8593,23.05 4.5704,7.379 9.3711,14.762 14.3711,22.153 2.6172,3.59 5.1602,7.148 7.7696,10.777 2.8203,3.59 5.5898,7.152 8.3984,10.781 5.5901,7.149 11.4491,14.141 17.6601,20.942 12.34,13.359 25.742,26.008 40.082,38.008 6.988,6.171 14.367,11.949 22.149,17.339 l 11.679,8.09 c 3.781,2.813 7.653,5.391 11.672,7.77 32.5,20.351 67.738,36.011 105.629,46.992 38.129,10.777 77.301,16.059 117.621,15.859 20.149,-0.39 40.188,-2.07 60.149,-5.082 19.96,-3.398 39.609,-8.078 58.949,-14.058 19.371,-6.211 38.203,-13.668 56.562,-22.461 18.36,-8.989 36.02,-19.141 52.969,-30.547 68.629,-48.281 118.398,-110.703 149.34,-187.301 14.961,-37.543 24.25,-75.941 27.851,-115.242 3.36,-39.488 1.399,-78 -6.019,-115.5 -0.781,-4.809 -1.762,-9.5 -2.973,-14.07 -0.969,-4.61 -2.109,-9.18 -3.277,-13.789 -2.422,-8.981 -5.121,-17.969 -8.082,-26.911 -6.219,-17.578 -13.399,-34.531 -21.57,-50.898 -3.981,-8.16 -8.282,-16.133 -12.848,-23.941 -2.192,-3.989 -4.492,-7.891 -6.871,-11.649 -2.621,-3.781 -5.121,-7.5 -7.5,-11.09 -5,-7.582 -10.199,-14.761 -15.551,-21.519 C 742.109,151.02 736.52,144.219 730.738,137.66 707.578,111.52 682.461,89.1406 655.309,70.5898 628.398,52.2305 600.738,37.5781 572.422,26.6016 533.711,12.0313 496.328,3.16016 460.199,0 479.141,0.390625 498.281,2.07031 517.66,5.03906 600.23,18.6289 671.949,50.2305 732.809,99.9219 793.672,149.801 838.75,211.172 868.09,283.98 c 29.332,73.008 38.121,151.059 26.359,234.032" /><path
         id="path28"
         style="fill:#707070;fill-opacity:1;fill-rule:evenodd;stroke:none"
         d="m 532.301,268.398 c 0.199,-5.589 0.32,-11.25 0.32,-17.027 0.188,-2.82 0.188,-5.59 0,-8.402 l -0.59,-8.36 c -0.429,-5.589 -0.902,-11.168 -1.519,-16.757 -1.024,-5.391 -1.992,-10.782 -2.973,-16.172 -4.809,-21.719 -12.309,-41.879 -22.461,-60.469 -4.957,-9.141 -10.387,-17.93 -16.168,-26.332 l -1.18,-1.789 -0.621,-0.59 -0.269,-0.59 -0.32,-0.621 -2.379,-2.699 -4.801,-5.66 c -2.781,-3.7894 -5.899,-7.5784 -9.301,-11.4105 -3.559,-3.3593 -7.148,-6.8281 -10.738,-10.4687 -1.602,-1.75 -3.281,-3.4727 -5.082,-5.0703 l -5.699,-4.461 c -3.79,-3.1992 -7.469,-6.2109 -11.098,-8.9804 -3.942,-2.8086 -7.852,-5.4297 -11.641,-7.8086 -15.582,-10.1602 -31.441,-18.25 -47.582,-24.2188 -10.578,-3.7929 -20.969,-6.6836 -31.129,-8.6719 -6.371,-2.2304 -12.968,-3.789 -19.769,-4.8085 0.59,-0.1915 1.219,-0.3907 1.801,-0.5821 35.117,-0.8281 72.347,6.5625 111.636,22.1406 4.813,2.1915 9.571,4.5 14.34,6.879 5,1.9921 9.883,4.4921 14.692,7.4609 9.57,5.4297 18.941,11.4805 28.121,18.2812 4.41,3.3985 8.91,6.7579 13.48,10.1602 4.41,3.9805 8.668,8.0078 12.848,11.9883 l 6.601,5.6601 c 1.989,2.1915 3.981,4.4215 5.981,6.6015 3.789,4.379 7.687,8.758 11.679,13.168 3.79,4.57 7.461,9.492 11.09,14.652 l 5.352,7.5 3.008,3.899 2.109,3.558 c 6.563,10.582 12.461,21.563 17.66,32.93 10.539,22.731 17.922,46.992 22.102,72.731 1.019,6.371 1.918,12.781 2.699,19.14 0.621,6.602 0.941,13.09 0.941,19.461 l 0.27,9.879 c 0,3.402 -0.191,6.68 -0.59,9.883 -0.23,6.558 -0.621,13.168 -1.211,19.769 -1.988,16.329 -5.39,32.5 -10.191,48.43 L 532.031,270.23 c 0.199,-0.621 0.27,-1.21 0.27,-1.832" /><path
         id="path30"
         style="fill:#707070;fill-opacity:1;fill-rule:evenodd;stroke:none"
         d="m 583.199,427.93 c -0.82,1.41 -1.519,2.89 -2.109,4.492 l -2.692,4.18 -5.078,8.668 -5.082,8.992 c -1.789,2.808 -3.707,5.508 -5.699,8.078 -3.988,5.59 -8.09,11.058 -12.269,16.488 l -13.469,15.231 -3.281,3.91 -3.598,3.281 -7.192,6.871 -7.5,6.609 c -2.378,2.379 -5.07,4.571 -8.039,6.559 l -16.492,12.582 c -22.73,15.149 -47.07,27.149 -73,35.93 -6.41,2 -12.898,3.789 -19.461,5.359 -3.398,1.012 -6.679,1.789 -9.879,2.418 l -9.879,1.762 -10.16,1.519 -5.082,0.903 c -1.597,0.187 -3.199,0.308 -4.797,0.308 -6.8,0.59 -13.562,1.09 -20.351,1.481 -26.918,0.398 -53.36,-2.571 -79.301,-8.981 -6.211,-1.8 -12.5,-3.789 -18.867,-5.98 -3.012,-1.012 -6.094,-1.988 -9.301,-2.969 l -8.98,-3.902 c -6.172,-2.379 -12.153,-5 -17.93,-7.809 -5.781,-3.172 -11.441,-6.25 -17.07,-9.262 -22.539,-13.359 -42.379,-29.027 -59.532,-46.988 -8.789,-8.75 -16.988,-18.359 -24.531,-28.711 l -1.527,-1.84 -1.1721,-1.168 c 0,0 0,-0.082 0,-0.32 l -2.6875,-3.859 -4.8125,-7.5 c -3.5898,-5.203 -6.7578,-10.352 -9.5703,-15.551 -23.1602,-43.09 -35.2305,-86.289 -36.207,-129.57 -0.8203,-26.563 1.6797,-51.289 7.457,-74.219 3.2109,-5.582 6.4102,-11.094 9.6133,-16.481 -1.4024,9.571 -2.3008,19.571 -2.6914,29.957 -0.6289,34.692 7.3789,70.391 23.9414,107.114 2.1875,4.41 4.5664,8.75 7.1484,13.16 l 3.9102,6.598 1.789,3.281 2.3905,3.289 c 5.391,8.16 11.602,16.281 18.551,24.25 13.789,16.371 29.84,30.629 48.199,42.82 4.77,2.77 9.57,5.66 14.34,8.668 4.801,2.582 9.801,5.082 14.961,7.461 l 7.5,3.59 c 2.578,1.019 5.309,1.992 8.09,2.973 5.187,2.226 10.469,4.097 15.859,5.699 22.141,6.609 45,10.078 68.551,10.508 23.519,-0.231 46.758,-3.707 69.687,-10.508 22.774,-7.379 44.223,-17.731 64.372,-31.129 l 13.75,-10.473 c 2.191,-1.597 4.5,-3.398 6.878,-5.39 l 6.602,-6.289 6.879,-6.559 3.281,-2.973 3,-3.629 11.371,-13.437 c 14.77,-18.981 26.449,-39.41 35,-61.371 1.84,-4.961 3.52,-10 5.117,-14.961 l 63.75,101.14 c -1.019,1.79 -1.918,3.711 -2.699,5.7" /><path
         id="path32"
         style="fill:#484848;fill-opacity:1;fill-rule:nonzero;stroke:none"
         d="m 1217.81,368.789 h -160.47 v 51.09 h 160.47 z m 22.66,114.84 H 1037.03 V 254.262 h -50.78 v 254.527 c 0,3.512 0.629,6.871 1.871,10 1.328,3.121 3.168,5.82 5.469,8.121 2.269,2.391 5,4.219 8.13,5.469 3.12,1.332 6.48,2.031 10.16,2.031 h 228.59 z m 92.19,-229.367 h -50.78 V 534.41 h 50.78 z" /><path
         id="path34"
         style="fill:#484848;fill-opacity:1;fill-rule:nonzero;stroke:none"
         d="m 1672.03,315.82 c 0,-6.25 -1.09,-12.968 -3.28,-20.16 -2.19,-7.18 -5.74,-13.859 -10.63,-20 -4.8,-6.051 -11.09,-11.172 -18.9,-15.308 -7.81,-4.063 -17.42,-6.09 -28.75,-6.09 h -192.81 c -3.68,0 -7.04,0.617 -10.16,1.867 -3.12,1.332 -5.86,3.172 -8.12,5.473 -2.31,2.269 -4.15,5 -5.47,8.128 -1.25,3.122 -1.88,6.481 -1.88,10.149 v 228.91 c 0,3.512 0.63,6.871 1.88,10 1.32,3.121 3.16,5.82 5.47,8.121 2.26,2.391 5,4.219 8.12,5.469 3.12,1.332 6.48,2.031 10.16,2.031 h 170 c 6.25,0 12.89,-1.172 20,-3.43 7.18,-2.191 13.82,-5.75 20,-10.628 6.25,-4.922 11.4,-11.25 15.46,-19.063 4.15,-7.809 6.26,-17.34 6.26,-28.59 v -9.687 c 0,-8.992 -1.53,-18.672 -4.54,-29.063 -3.04,-10.32 -7.89,-20.078 -14.53,-29.219 5.71,-3.558 11.1,-7.82 16.1,-12.82 5.07,-4.922 9.53,-10.621 13.28,-17.18 3.75,-6.492 6.72,-13.832 8.9,-22.031 2.27,-8.25 3.44,-17.308 3.44,-27.187 z m -50.78,9.692 c 0,6.636 -1.05,12.578 -3.13,17.808 -2.1,5.309 -5.07,9.84 -8.9,13.59 -3.75,3.828 -8.28,6.762 -13.6,8.75 -5.31,2.07 -11.32,3.129 -17.96,3.129 h -114.54 v 51.09 h 91.72 c 6.57,0 12.5,0.98 17.82,2.973 5.39,2.07 10,5 13.75,8.75 3.75,3.75 6.6,8.277 8.59,13.597 2.07,5.313 3.12,11.25 3.12,17.813 v 9.687 c 0,7.262 -3.51,10.93 -10.46,10.93 h -144.85 v -178.59 h 167.66 c 0.94,0 2.03,0.039 3.28,0.16 1.33,0.192 2.54,0.621 3.59,1.25 1.02,0.621 1.92,1.711 2.66,3.281 0.82,1.559 1.25,3.668 1.25,6.399 z" /><path
         id="path36"
         style="fill:#484848;fill-opacity:1;fill-rule:nonzero;stroke:none"
         d="m 1995.78,440.199 c 0,-11.57 -1.48,-21.961 -4.37,-31.097 -2.82,-9.063 -6.68,-17.114 -11.57,-24.063 -4.92,-6.988 -10.54,-12.969 -16.87,-17.969 -6.37,-4.922 -13.05,-8.98 -20,-12.191 -6.99,-3.117 -14.02,-5.43 -21.09,-6.867 -7.11,-1.492 -13.76,-2.192 -20,-2.192 l 106.09,-91.558 h -78.59 l -105.79,91.558 h -36.56 v 50.782 h 114.85 c 6.32,0.507 12.1,1.878 17.34,4.058 5.31,2.192 9.88,5.078 13.75,8.75 3.83,3.641 6.8,8.012 8.91,13.129 2.07,5.082 3.12,10.981 3.12,17.66 v 32.031 c 0,2.891 -0.39,5.071 -1.09,6.559 -0.75,1.441 -1.68,2.539 -2.82,3.281 -1.05,0.7 -2.18,1.129 -3.43,1.25 -1.25,0.2 -2.43,0.309 -3.44,0.309 h -167.5 V 254.262 h -50.78 v 254.527 c 0,3.512 0.62,6.871 1.87,10 1.33,3.121 3.17,5.82 5.47,8.121 2.27,2.391 5,4.219 8.13,5.469 3.12,1.332 6.48,2.031 10.15,2.031 h 192.66 c 11.33,0 20.94,-2.109 28.75,-6.25 7.81,-4.058 14.14,-9.211 19.06,-15.461 4.88,-6.179 8.36,-12.82 10.47,-20 2.19,-7.109 3.28,-13.75 3.28,-20 z" /><path
         id="path38"
         style="fill:#484848;fill-opacity:1;fill-rule:nonzero;stroke:none"
         d="m 2322.03,254.262 h -50.78 v 68.75 h -178.59 v -68.75 h -50.78 v 140 c 0,20.508 3.47,39.367 10.46,56.558 7.07,17.192 16.88,31.91 29.38,44.219 12.5,12.383 27.26,22.031 44.37,28.91 17.07,6.949 35.67,10.461 55.79,10.461 h 114.53 c 3.51,0 6.87,-0.699 10,-2.031 3.12,-1.25 5.82,-3.078 8.12,-5.469 2.38,-2.301 4.22,-5 5.47,-8.121 1.33,-3.129 2.03,-6.488 2.03,-10 z m -229.37,119.527 h 178.59 v 109.84 h -89.37 c -1.57,0 -4.85,-0.27 -9.85,-0.777 -5,-0.43 -10.78,-1.563 -17.34,-3.442 -6.57,-1.789 -13.52,-4.609 -20.78,-8.43 -7.31,-3.75 -14.03,-8.992 -20.16,-15.628 -6.17,-6.563 -11.21,-14.84 -15.16,-24.84 -3.98,-9.922 -5.93,-21.992 -5.93,-36.25 z" /><path
         id="path40"
         style="fill:#484848;fill-opacity:1;fill-rule:nonzero;stroke:none"
         d="m 2762.03,254.262 h -183.28 c -4.69,0 -9.77,0.508 -15.16,1.558 -5.31,1.129 -10.62,2.852 -15.93,5.16 -5.32,2.379 -10.39,5.469 -15.16,9.219 -4.8,3.75 -9.06,8.199 -12.81,13.43 -3.67,5.32 -6.64,11.449 -8.91,18.441 -2.19,6.95 -3.28,14.77 -3.28,23.442 v 137.5 c 0,4.687 0.51,9.718 1.56,15.148 1.14,5.391 2.85,10.711 5.16,15.942 2.38,5.308 5.47,10.347 9.22,15.16 3.83,4.879 8.36,9.136 13.59,12.808 5.31,3.75 11.41,6.719 18.28,8.91 6.96,2.258 14.77,3.43 23.44,3.43 h 183.28 v -50.781 h -183.28 c -6.56,0 -11.64,-1.789 -15.16,-5.309 -3.55,-3.55 -5.31,-8.75 -5.31,-15.621 V 325.512 c 0,-6.492 1.76,-11.532 5.31,-15.16 3.64,-3.551 8.68,-5.313 15.16,-5.313 h 183.28 z" /><path
         id="path42"
         style="fill:#484848;fill-opacity:1;fill-rule:nonzero;stroke:none"
         d="m 3040.78,368.789 h -160.47 v 51.09 h 160.47 z m 22.81,-114.527 h -183.28 c -6.99,0 -14.65,1.25 -22.97,3.75 -8.36,2.5 -16.05,6.558 -23.12,12.187 -7.11,5.621 -13.05,12.961 -17.81,22.031 -4.81,9.059 -7.19,20.149 -7.19,33.282 v 183.277 c 0,3.512 0.62,6.871 1.87,10 1.33,3.121 3.17,5.82 5.47,8.121 2.27,2.391 5,4.219 8.13,5.469 3.12,1.332 6.48,2.031 10.15,2.031 h 228.75 V 483.629 H 2860 V 325.512 c 0,-6.563 1.76,-11.641 5.31,-15.16 3.52,-3.551 8.67,-5.313 15.47,-5.313 h 182.81 z" /><path
         id="path44"
         style="fill:#484848;fill-opacity:1;fill-rule:nonzero;stroke:none"
         d="m 3392.66,440.199 c 0,-11.57 -1.49,-21.961 -4.38,-31.097 -2.81,-9.063 -6.68,-17.114 -11.56,-24.063 -4.92,-6.988 -10.55,-12.969 -16.88,-17.969 -6.36,-4.922 -13.04,-8.98 -20,-12.191 -6.99,-3.117 -14.02,-5.43 -21.09,-6.867 -7.11,-1.492 -13.75,-2.192 -20,-2.192 l 106.09,-91.558 h -78.59 l -105.78,91.558 h -36.56 v 50.782 h 114.84 c 6.33,0.507 12.11,1.878 17.34,4.058 5.32,2.192 9.89,5.078 13.75,8.75 3.83,3.641 6.8,8.012 8.91,13.129 2.07,5.082 3.13,10.981 3.13,17.66 v 32.031 c 0,2.891 -0.4,5.071 -1.1,6.559 -0.74,1.441 -1.68,2.539 -2.81,3.281 -1.06,0.7 -2.19,1.129 -3.44,1.25 -1.25,0.2 -2.42,0.309 -3.44,0.309 h -167.5 V 254.262 h -50.78 v 254.527 c 0,3.512 0.63,6.871 1.88,10 1.33,3.121 3.16,5.82 5.47,8.121 2.26,2.391 5,4.219 8.12,5.469 3.13,1.332 6.49,2.031 10.16,2.031 h 192.65 c 11.33,0 20.94,-2.109 28.75,-6.25 7.82,-4.058 14.14,-9.211 19.07,-15.461 4.88,-6.179 8.36,-12.82 10.47,-20 2.18,-7.109 3.28,-13.75 3.28,-20 z" /><path
         id="path46"
         style="fill:#484848;fill-opacity:1;fill-rule:nonzero;stroke:none"
         d="m 3737.97,367.539 c 0,-17.109 -2.93,-32.809 -8.75,-47.187 -5.86,-14.301 -13.99,-26.641 -24.38,-37.032 -10.43,-10.429 -22.77,-18.55 -37.03,-24.371 -14.29,-5.711 -29.8,-8.597 -46.56,-8.597 h -68.75 c -16.88,0 -32.5,2.886 -46.88,8.597 -14.29,5.821 -26.64,13.942 -37.03,24.371 -10.43,10.391 -18.59,22.731 -24.53,37.032 -5.86,14.378 -8.75,30.078 -8.75,47.187 v 53.59 c 0,16.883 2.89,32.5 8.75,46.883 5.94,14.367 14.1,26.718 24.53,37.027 10.39,10.391 22.74,18.512 37.03,24.371 14.38,5.942 30,8.91 46.88,8.91 h 68.75 c 16.76,0 32.27,-2.968 46.56,-8.91 14.26,-5.859 26.6,-13.98 37.03,-24.371 10.39,-10.309 18.52,-22.66 24.38,-37.027 5.82,-14.383 8.75,-30 8.75,-46.883 z m -50.78,53.59 c 0,10 -1.64,19.07 -4.85,27.191 -3.12,8.129 -7.61,15.039 -13.43,20.782 -5.75,5.82 -12.74,10.347 -20.94,13.597 -8.13,3.199 -17.03,4.84 -26.72,4.84 h -68.75 c -9.92,0 -18.98,-1.641 -27.19,-4.84 -8.12,-3.25 -15.11,-7.777 -20.93,-13.597 -5.86,-5.743 -10.4,-12.653 -13.6,-20.782 -3.12,-8.121 -4.69,-17.191 -4.69,-27.191 v -53.59 c 0,-10 1.57,-19.059 4.69,-27.187 3.2,-8.122 7.74,-15.122 13.6,-20.942 5.82,-5.859 12.81,-10.39 20.93,-13.59 8.21,-3.121 17.27,-4.691 27.19,-4.691 h 68.28 c 9.88,0 18.91,1.57 27.03,4.691 8.13,3.2 15.08,7.731 20.94,13.59 5.94,5.82 10.47,12.82 13.59,20.942 3.21,8.128 4.85,17.187 4.85,27.187 z" /></g></g></svg>